<svg xmlns="http://www.w3.org/2000/svg" viewBox="0 0 117.72 96.33"><defs><style>.cls-1{fill:#e9190f;}.cls-2{opacity:0.25;}.cls-3{fill:#fff;}</style></defs><g id="Calque_2" data-name="Calque 2"><g id="Calque_1-2" data-name="Calque 1"><rect class="cls-1" width="58.85" height="48.17"/><g class="cls-2"><path class="cls-3" d="M11.34,7.65,7.47,3.78,9.28,2a.22.22,0,0,0,0-.3L9,1.41l-2,2-.41.41.41.41,4,4L11.34,8A.22.22,0,0,0,11.34,7.65Z"/><path class="cls-3" d="M5.84,3l.41-.4,2-2L8,.34a.2.2,0,0,0-.3,0L5.84,2.15,4,.34a.21.21,0,0,0-.31,0L3.47.59l2,2Z"/><path class="cls-3" d="M5,3.78l-.4-.41-2-2-.25.26a.2.2,0,0,0,0,.3L4.21,3.78.34,7.65a.2.2,0,0,0,0,.3l.25.26,4-4Z"/><path class="cls-3" d="M5.84,4.59,5.43,5l-4,4,.25.26a.23.23,0,0,0,.31,0L5.84,5.41,9.71,9.28a.22.22,0,0,0,.3,0L10.27,9l-4-4Z"/></g><g class="cls-2"><path class="cls-3" d="M23.22,7.65,19.35,3.78,21.16,2a.2.2,0,0,0,0-.3l-.25-.26-2,2-.4.41.4.41,4,4L23.22,8A.2.2,0,0,0,23.22,7.65Z"/><path class="cls-3" d="M17.72,3l.41-.4,2-2L19.84.34a.21.21,0,0,0-.31,0L17.72,2.15,15.91.34a.2.2,0,0,0-.3,0l-.26.25,2,2Z"/><path class="cls-3" d="M16.91,3.78l-.41-.41-2-2-.26.26a.22.22,0,0,0,0,.3l1.81,1.81L12.22,7.65a.22.22,0,0,0,0,.3l.26.26,4-4Z"/><path class="cls-3" d="M17.72,4.59l-.4.41-4,4,.26.26a.22.22,0,0,0,.3,0l3.87-3.87,3.87,3.87a.23.23,0,0,0,.31,0L22.15,9l-4-4Z"/></g><g class="cls-2"><path class="cls-3" d="M35.12,7.71,31.25,3.84,33.06,2a.23.23,0,0,0,0-.31l-.26-.25-2,2-.41.4.41.41,4,4L35.12,8A.22.22,0,0,0,35.12,7.71Z"/><path class="cls-3" d="M29.62,3l.4-.41,2-2L31.73.39a.22.22,0,0,0-.3,0L29.62,2.21,27.81.39a.23.23,0,0,0-.31,0l-.25.26,2,2Z"/><path class="cls-3" d="M28.8,3.83l-.41-.4-2-2-.25.25a.21.21,0,0,0,0,.31L28,3.84,24.12,7.71a.2.2,0,0,0,0,.3l.25.26,4-4Z"/><path class="cls-3" d="M29.62,4.65l-.41.41-4,4,.25.26a.22.22,0,0,0,.3,0l3.88-3.87,3.87,3.87a.22.22,0,0,0,.3,0l.26-.26-4-4Z"/></g><g class="cls-2"><path class="cls-3" d="M47,7.71,43.13,3.84,44.94,2a.21.21,0,0,0,0-.31l-.25-.25-2,2-.4.4.4.41,4,4L47,8A.22.22,0,0,0,47,7.71Z"/><path class="cls-3" d="M41.5,3l.41-.41,2-2L43.61.39a.22.22,0,0,0-.3,0L41.5,2.21,39.69.39a.22.22,0,0,0-.3,0l-.26.26,2,2Z"/><path class="cls-3" d="M40.69,3.83l-.41-.4-2-2-.26.25a.23.23,0,0,0,0,.31l1.81,1.81L36,7.71A.22.22,0,0,0,36,8l.26.26,4-4Z"/><path class="cls-3" d="M41.5,4.65l-.41.41-4,4,.26.26a.22.22,0,0,0,.3,0L41.5,5.47l3.87,3.87a.23.23,0,0,0,.31,0l.25-.26-4-4Z"/></g><g class="cls-2"><path class="cls-3" d="M58.68,7.71,54.81,3.84,56.62,2a.23.23,0,0,0,0-.31l-.26-.25-2,2-.41.4.41.41,4,4L58.68,8A.22.22,0,0,0,58.68,7.71Z"/><path class="cls-3" d="M53.18,3l.4-.41,2-2L55.29.39a.22.22,0,0,0-.3,0L53.18,2.21,51.37.39a.23.23,0,0,0-.31,0l-.25.26,2,2Z"/><path class="cls-3" d="M52.36,3.83l-.4-.4-2-2-.25.25a.21.21,0,0,0,0,.31l1.81,1.81L47.68,7.71a.2.2,0,0,0,0,.3l.25.26,4-4Z"/><path class="cls-3" d="M53.18,4.65l-.41.41-4,4,.25.26a.23.23,0,0,0,.31,0l3.87-3.87,3.87,3.87a.22.22,0,0,0,.3,0l.26-.26-4-4Z"/></g><g class="cls-2"><path class="cls-3" d="M11.26,16.72,7.39,12.85,9.19,11a.21.21,0,0,0,0-.31l-.25-.26-2,2-.41.4.41.41,4,4,.26-.26A.22.22,0,0,0,11.26,16.72Z"/><path class="cls-3" d="M5.75,12l.41-.41,2-2L7.87,9.4a.22.22,0,0,0-.3,0L5.75,11.21,3.94,9.4a.22.22,0,0,0-.3,0l-.25.26,2,2Z"/><path class="cls-3" d="M4.94,12.84l-.41-.4-2-2-.25.26a.21.21,0,0,0,0,.31l1.81,1.81L.25,16.72a.22.22,0,0,0,0,.3l.26.26,4-4Z"/><path class="cls-3" d="M5.75,13.66l-.4.41-4,4,.26.26a.22.22,0,0,0,.3,0l3.87-3.87,3.88,3.87a.22.22,0,0,0,.3,0l.26-.26-4-4Z"/></g><g class="cls-2"><path class="cls-3" d="M23.14,16.72l-3.87-3.87L21.08,11a.21.21,0,0,0,0-.31l-.26-.26-2,2-.41.4.41.41,4,4,.26-.26A.22.22,0,0,0,23.14,16.72Z"/><path class="cls-3" d="M17.64,12l.41-.41,2-2-.26-.26a.22.22,0,0,0-.3,0l-1.81,1.81L15.83,9.4a.22.22,0,0,0-.3,0l-.26.26,2,2Z"/><path class="cls-3" d="M16.83,12.84l-.41-.4-2-2-.26.26a.23.23,0,0,0,0,.31L16,12.85l-3.87,3.87a.22.22,0,0,0,0,.3l.26.26,4-4Z"/><path class="cls-3" d="M17.64,13.66l-.41.41-4,4,.26.26a.22.22,0,0,0,.3,0l3.87-3.87,3.87,3.87a.22.22,0,0,0,.3,0l.26-.26-4-4Z"/></g><g class="cls-2"><path class="cls-3" d="M35,16.77,31.17,12.9,33,11.09a.2.2,0,0,0,0-.3l-.25-.26-2,2-.41.41.41.41,4,4,.25-.25A.21.21,0,0,0,35,16.77Z"/><path class="cls-3" d="M29.53,12.09l.41-.41,2-2-.25-.26a.23.23,0,0,0-.31,0l-1.81,1.81L27.72,9.46a.22.22,0,0,0-.3,0l-.26.26,2,2Z"/><path class="cls-3" d="M28.72,12.9l-.41-.41-2-2-.26.26a.22.22,0,0,0,0,.3L27.9,12.9,24,16.77a.23.23,0,0,0,0,.31l.26.25,4-4Z"/><path class="cls-3" d="M29.53,13.72l-.4.41-4,4,.26.26a.22.22,0,0,0,.3,0l3.87-3.88,3.88,3.88a.22.22,0,0,0,.3,0l.25-.26-4-4Z"/></g><g class="cls-2"><path class="cls-3" d="M46.92,16.77,43.05,12.9l1.81-1.81a.22.22,0,0,0,0-.3l-.26-.26-2,2-.41.41.41.41,4,4,.26-.25A.23.23,0,0,0,46.92,16.77Z"/><path class="cls-3" d="M41.42,12.09l.41-.41,2-2-.26-.26a.22.22,0,0,0-.3,0l-1.81,1.81L39.61,9.46a.22.22,0,0,0-.3,0l-.26.26,2,2Z"/><path class="cls-3" d="M40.6,12.9l-.4-.41-2-2-.25.26a.2.2,0,0,0,0,.3l1.81,1.81-3.87,3.87a.23.23,0,0,0,0,.31l.25.25,4-4Z"/><path class="cls-3" d="M41.42,13.72l-.41.41-4,4,.25.26a.23.23,0,0,0,.31,0l3.87-3.88,3.87,3.88a.22.22,0,0,0,.3,0l.26-.26-4-4Z"/></g><g class="cls-2"><path class="cls-3" d="M58.6,16.77,54.73,12.9l1.8-1.81a.2.2,0,0,0,0-.3l-.25-.26-2,2-.41.41.41.41,4,4,.26-.25A.23.23,0,0,0,58.6,16.77Z"/><path class="cls-3" d="M53.09,12.09l.41-.41,2-2-.25-.26a.23.23,0,0,0-.31,0l-1.81,1.81L51.28,9.46a.22.22,0,0,0-.3,0l-.25.26,2,2Z"/><path class="cls-3" d="M52.28,12.9l-.41-.41-2-2-.26.26a.22.22,0,0,0,0,.3l1.82,1.81-3.88,3.87a.23.23,0,0,0,0,.31l.26.25,4-4Z"/><path class="cls-3" d="M53.09,13.72l-.4.41-4,4,.26.26a.22.22,0,0,0,.3,0l3.87-3.88L57,18.41a.22.22,0,0,0,.3,0l.25-.26-4-4Z"/></g><g class="cls-2"><path class="cls-3" d="M11.26,25.84,7.39,22l1.8-1.81a.2.2,0,0,0,0-.3l-.25-.26-2,2L6.57,22l.41.41,4,4,.26-.26A.22.22,0,0,0,11.26,25.84Z"/><path class="cls-3" d="M5.75,21.15l.41-.4,2-2-.25-.25a.22.22,0,0,0-.3,0L5.75,20.34,3.94,18.53a.22.22,0,0,0-.3,0l-.25.25,2,2Z"/><path class="cls-3" d="M4.94,22l-.41-.41-2-2-.25.26a.2.2,0,0,0,0,.3L4.13,22,.25,25.84a.22.22,0,0,0,0,.3l.26.26,4-4Z"/><path class="cls-3" d="M5.75,22.78l-.4.41-4,4,.26.26a.22.22,0,0,0,.3,0L5.75,23.6l3.88,3.87a.22.22,0,0,0,.3,0l.26-.26-4-4Z"/></g><g class="cls-2"><path class="cls-3" d="M23.14,25.84,19.27,22l1.81-1.81a.2.2,0,0,0,0-.3l-.26-.26-2,2-.41.41.41.41,4,4,.26-.26A.22.22,0,0,0,23.14,25.84Z"/><path class="cls-3" d="M17.64,21.15l.41-.4,2-2-.26-.25a.22.22,0,0,0-.3,0l-1.81,1.81-1.81-1.81a.22.22,0,0,0-.3,0l-.26.25,2,2Z"/><path class="cls-3" d="M16.83,22l-.41-.41-2-2-.26.26a.22.22,0,0,0,0,.3L16,22l-3.87,3.87a.22.22,0,0,0,0,.3l.26.26,4-4Z"/><path class="cls-3" d="M17.64,22.78l-.41.41-4,4,.26.26a.22.22,0,0,0,.3,0l3.87-3.87,3.87,3.87a.22.22,0,0,0,.3,0l.26-.26-4-4Z"/></g><g class="cls-2"><path class="cls-3" d="M35,25.9,31.17,22,33,20.22a.2.2,0,0,0,0-.3l-.25-.26-2,2-.41.41.41.41,4,4L35,26.2A.2.2,0,0,0,35,25.9Z"/><path class="cls-3" d="M29.53,21.21l.41-.41,2-2-.25-.25a.21.21,0,0,0-.31,0L29.53,20.4l-1.81-1.81a.2.2,0,0,0-.3,0l-.26.25,2,2Z"/><path class="cls-3" d="M28.72,22l-.41-.41-2-2-.26.26a.22.22,0,0,0,0,.3L27.9,22,24,25.9a.22.22,0,0,0,0,.3l.26.26,4-4Z"/><path class="cls-3" d="M29.53,22.84l-.4.41-4,4,.26.26a.22.22,0,0,0,.3,0l3.87-3.87,3.88,3.87a.22.22,0,0,0,.3,0l.25-.26-4-4Z"/></g><g class="cls-2"><path class="cls-3" d="M46.92,25.9,43.05,22l1.81-1.81a.22.22,0,0,0,0-.3l-.26-.26-2,2-.41.41.41.41,4,4,.26-.26A.22.22,0,0,0,46.92,25.9Z"/><path class="cls-3" d="M41.42,21.21l.41-.41,2-2-.26-.25a.2.2,0,0,0-.3,0L41.42,20.4l-1.81-1.81a.2.2,0,0,0-.3,0l-.26.25,2,2Z"/><path class="cls-3" d="M40.6,22l-.4-.41-2-2-.25.26a.2.2,0,0,0,0,.3L39.79,22,35.92,25.9a.22.22,0,0,0,0,.3l.25.26,4-4Z"/><path class="cls-3" d="M41.42,22.84l-.41.41-4,4,.25.26a.23.23,0,0,0,.31,0l3.87-3.87,3.87,3.87a.22.22,0,0,0,.3,0l.26-.26-4-4Z"/></g><g class="cls-2"><path class="cls-3" d="M58.6,25.9,54.73,22l1.8-1.81a.2.2,0,0,0,0-.3l-.25-.26-2,2-.41.41.41.41,4,4,.26-.26A.22.22,0,0,0,58.6,25.9Z"/><path class="cls-3" d="M53.09,21.21l.41-.41,2-2-.25-.25a.21.21,0,0,0-.31,0L53.09,20.4l-1.81-1.81a.2.2,0,0,0-.3,0l-.25.25,2,2Z"/><path class="cls-3" d="M52.28,22l-.41-.41-2-2-.26.26a.22.22,0,0,0,0,.3L51.47,22,47.59,25.9a.22.22,0,0,0,0,.3l.26.26,4-4Z"/><path class="cls-3" d="M53.09,22.84l-.4.41-4,4,.26.26a.22.22,0,0,0,.3,0l3.87-3.87L57,27.53a.22.22,0,0,0,.3,0l.25-.26-4-4Z"/></g><g class="cls-2"><path class="cls-3" d="M11.26,35.79,7.39,31.92l1.8-1.81a.21.21,0,0,0,0-.31l-.25-.25-2,2-.41.4.41.41,4,4,.26-.26A.22.22,0,0,0,11.26,35.79Z"/><path class="cls-3" d="M5.75,31.1l.41-.41,2-2-.25-.25a.2.2,0,0,0-.3,0L5.75,30.29,3.94,28.48a.2.2,0,0,0-.3,0l-.25.25,2,2Z"/><path class="cls-3" d="M4.94,31.91l-.41-.4-2-2-.25.25a.21.21,0,0,0,0,.31l1.81,1.81L.25,35.79a.22.22,0,0,0,0,.3l.26.26,4-4Z"/><path class="cls-3" d="M5.75,32.73l-.4.41-4,4,.26.26a.22.22,0,0,0,.3,0l3.87-3.87,3.88,3.87a.22.22,0,0,0,.3,0l.26-.26-4-4Z"/></g><g class="cls-2"><path class="cls-3" d="M23.14,35.79l-3.87-3.87,1.81-1.81a.21.21,0,0,0,0-.31l-.26-.25-2,2-.41.4.41.41,4,4,.26-.26A.22.22,0,0,0,23.14,35.79Z"/><path class="cls-3" d="M17.64,31.1l.41-.41,2-2-.26-.25a.2.2,0,0,0-.3,0l-1.81,1.81-1.81-1.81a.2.2,0,0,0-.3,0l-.26.25,2,2Z"/><path class="cls-3" d="M16.83,31.91l-.41-.4-2-2-.26.25a.23.23,0,0,0,0,.31L16,31.92l-3.87,3.87a.22.22,0,0,0,0,.3l.26.26,4-4Z"/><path class="cls-3" d="M17.64,32.73l-.41.41-4,4,.26.26a.22.22,0,0,0,.3,0l3.87-3.87,3.87,3.87a.22.22,0,0,0,.3,0l.26-.26-4-4Z"/></g><g class="cls-2"><path class="cls-3" d="M35,35.84,31.17,32,33,30.16a.2.2,0,0,0,0-.3l-.25-.26-2,2-.41.4.41.41,4,4,.25-.26A.21.21,0,0,0,35,35.84Z"/><path class="cls-3" d="M29.53,31.16l.41-.41,2-2-.25-.26a.23.23,0,0,0-.31,0l-1.81,1.81-1.81-1.81a.22.22,0,0,0-.3,0l-.26.26,2,2Z"/><path class="cls-3" d="M28.72,32l-.41-.4-2-2-.26.26a.22.22,0,0,0,0,.3L27.9,32,24,35.84a.23.23,0,0,0,0,.31l.26.26,4-4Z"/><path class="cls-3" d="M29.53,32.79l-.4.41-4,4,.26.26a.22.22,0,0,0,.3,0l3.87-3.88,3.88,3.88a.22.22,0,0,0,.3,0l.25-.26-4-4Z"/></g><g class="cls-2"><path class="cls-3" d="M46.92,35.84,43.05,32l1.81-1.82a.22.22,0,0,0,0-.3l-.26-.26-2,2-.41.4.41.41,4,4,.26-.26A.23.23,0,0,0,46.92,35.84Z"/><path class="cls-3" d="M41.42,31.16l.41-.41,2-2-.26-.26a.22.22,0,0,0-.3,0l-1.81,1.81-1.81-1.81a.22.22,0,0,0-.3,0l-.26.26,2,2Z"/><path class="cls-3" d="M40.6,32l-.4-.4-2-2-.25.26a.2.2,0,0,0,0,.3L39.79,32l-3.87,3.86a.23.23,0,0,0,0,.31l.25.26,4-4Z"/><path class="cls-3" d="M41.42,32.79,41,33.2l-4,4,.25.26a.23.23,0,0,0,.31,0l3.87-3.88,3.87,3.88a.22.22,0,0,0,.3,0l.26-.26-4-4Z"/></g><g class="cls-2"><path class="cls-3" d="M58.6,35.84,54.73,32l1.8-1.82a.2.2,0,0,0,0-.3l-.25-.26-2,2-.41.4.41.41,4,4,.26-.26A.23.23,0,0,0,58.6,35.84Z"/><path class="cls-3" d="M53.09,31.16l.41-.41,2-2-.25-.26a.23.23,0,0,0-.31,0l-1.81,1.81-1.81-1.81a.22.22,0,0,0-.3,0l-.25.26,2,2Z"/><path class="cls-3" d="M52.28,32l-.41-.4-2-2-.26.26a.22.22,0,0,0,0,.3L51.47,32l-3.88,3.86a.23.23,0,0,0,0,.31l.26.26,4-4Z"/><path class="cls-3" d="M53.09,32.79l-.4.41-4,4,.26.26a.22.22,0,0,0,.3,0l3.87-3.88L57,37.48a.22.22,0,0,0,.3,0l.25-.26-4-4Z"/></g><g class="cls-2"><path class="cls-3" d="M11.26,45.79,7.39,41.92l1.8-1.81a.2.2,0,0,0,0-.3l-.25-.26-2,2-.41.41.41.41,4,4,.26-.26A.22.22,0,0,0,11.26,45.79Z"/><path class="cls-3" d="M5.75,41.1l.41-.4,2-2-.25-.26a.22.22,0,0,0-.3,0L5.75,40.29,3.94,38.48a.22.22,0,0,0-.3,0l-.25.26,2,2Z"/><path class="cls-3" d="M4.94,41.92l-.41-.41-2-2-.25.26a.2.2,0,0,0,0,.3l1.81,1.81L.25,45.79a.22.22,0,0,0,0,.3l.26.26,4-4Z"/><path class="cls-3" d="M5.75,42.73l-.4.41-4,4,.26.26a.22.22,0,0,0,.3,0l3.87-3.87,3.88,3.87a.22.22,0,0,0,.3,0l.26-.26-4-4Z"/></g><g class="cls-2"><path class="cls-3" d="M23.14,45.79l-3.87-3.87,1.81-1.81a.2.2,0,0,0,0-.3l-.26-.26-2,2-.41.41.41.41,4,4,.26-.26A.22.22,0,0,0,23.14,45.79Z"/><path class="cls-3" d="M17.64,41.1l.41-.4,2-2-.26-.26a.22.22,0,0,0-.3,0l-1.81,1.81-1.81-1.81a.22.22,0,0,0-.3,0l-.26.26,2,2Z"/><path class="cls-3" d="M16.83,41.92l-.41-.41-2-2-.26.26a.22.22,0,0,0,0,.3L16,41.92l-3.87,3.87a.22.22,0,0,0,0,.3l.26.26,4-4Z"/><path class="cls-3" d="M17.64,42.73l-.41.41-4,4,.26.26a.22.22,0,0,0,.3,0l3.87-3.87,3.87,3.87a.22.22,0,0,0,.3,0l.26-.26-4-4Z"/></g><g class="cls-2"><path class="cls-3" d="M35,45.85,31.17,42,33,40.17a.2.2,0,0,0,0-.3l-.25-.26-2,2-.41.41.41.41,4,4,.25-.26A.2.2,0,0,0,35,45.85Z"/><path class="cls-3" d="M29.53,41.16l.41-.41,2-2-.25-.25a.21.21,0,0,0-.31,0l-1.81,1.81-1.81-1.81a.2.2,0,0,0-.3,0l-.26.25,2,2Z"/><path class="cls-3" d="M28.72,42l-.41-.41-2-2-.26.26a.22.22,0,0,0,0,.3L27.9,42,24,45.85a.22.22,0,0,0,0,.3l.26.26,4-4Z"/><path class="cls-3" d="M29.53,42.79l-.4.41-4,4,.26.26a.22.22,0,0,0,.3,0l3.87-3.87,3.88,3.87a.22.22,0,0,0,.3,0l.25-.26-4-4Z"/></g><g class="cls-2"><path class="cls-3" d="M46.92,45.85,43.05,42l1.81-1.81a.22.22,0,0,0,0-.3l-.26-.26-2,2-.41.41.41.41,4,4,.26-.26A.22.22,0,0,0,46.92,45.85Z"/><path class="cls-3" d="M41.42,41.16l.41-.41,2-2-.26-.25a.2.2,0,0,0-.3,0l-1.81,1.81-1.81-1.81a.2.2,0,0,0-.3,0l-.26.25,2,2Z"/><path class="cls-3" d="M40.6,42l-.4-.41-2-2-.25.26a.2.2,0,0,0,0,.3L39.79,42l-3.87,3.87a.22.22,0,0,0,0,.3l.25.26,4-4Z"/><path class="cls-3" d="M41.42,42.79,41,43.2l-4,4,.25.26a.23.23,0,0,0,.31,0l3.87-3.87,3.87,3.87a.22.22,0,0,0,.3,0l.26-.26-4-4Z"/></g><g class="cls-2"><path class="cls-3" d="M58.6,45.85,54.73,42l1.8-1.81a.2.2,0,0,0,0-.3l-.25-.26-2,2-.41.41.41.41,4,4,.26-.26A.22.22,0,0,0,58.6,45.85Z"/><path class="cls-3" d="M53.09,41.16l.41-.41,2-2-.25-.25a.21.21,0,0,0-.31,0l-1.81,1.81-1.81-1.81a.2.2,0,0,0-.3,0l-.25.25,2,2Z"/><path class="cls-3" d="M52.28,42l-.41-.41-2-2-.26.26a.22.22,0,0,0,0,.3L51.47,42l-3.88,3.87a.22.22,0,0,0,0,.3l.26.26,4-4Z"/><path class="cls-3" d="M53.09,42.79l-.4.41-4,4,.26.26a.22.22,0,0,0,.3,0l3.87-3.87L57,47.48a.22.22,0,0,0,.3,0l.25-.26-4-4Z"/></g><rect class="cls-1" x="58.87" width="58.85" height="48.17"/><g class="cls-2"><path class="cls-3" d="M70.21,7.65,66.34,3.78,68.15,2a.2.2,0,0,0,0-.3l-.25-.26-2,2-.4.41.4.41,4,4L70.21,8A.22.22,0,0,0,70.21,7.65Z"/><path class="cls-3" d="M64.71,3l.41-.4,2-2L66.82.34a.2.2,0,0,0-.3,0L64.71,2.15,62.9.34a.2.2,0,0,0-.3,0l-.26.25,2,2Z"/><path class="cls-3" d="M63.9,3.78l-.41-.41-2-2-.26.26a.22.22,0,0,0,0,.3l1.81,1.81L59.21,7.65a.22.22,0,0,0,0,.3l.26.26,4-4Z"/><path class="cls-3" d="M64.71,4.59,64.3,5l-4,4,.26.26a.22.22,0,0,0,.3,0l3.87-3.87,3.87,3.87a.23.23,0,0,0,.31,0L69.14,9l-4-4Z"/></g><g class="cls-2"><path class="cls-3" d="M82.1,7.65,78.23,3.78,80,2a.22.22,0,0,0,0-.3l-.26-.26-2,2-.41.41.41.41,4,4L82.1,8A.22.22,0,0,0,82.1,7.65Z"/><path class="cls-3" d="M76.6,3l.4-.4,2-2L78.71.34a.2.2,0,0,0-.3,0L76.6,2.15,74.79.34a.21.21,0,0,0-.31,0l-.25.25,2,2Z"/><path class="cls-3" d="M75.78,3.78l-.4-.41-2-2-.25.26a.2.2,0,0,0,0,.3L75,3.78,71.1,7.65a.2.2,0,0,0,0,.3l.25.26,4-4Z"/><path class="cls-3" d="M76.6,4.59,76.19,5l-4,4,.25.26a.23.23,0,0,0,.31,0L76.6,5.41l3.87,3.87a.22.22,0,0,0,.3,0L81,9,77,5Z"/></g><g class="cls-2"><path class="cls-3" d="M94,7.71,90.12,3.84,91.93,2a.21.21,0,0,0,0-.31l-.26-.25-2,2-.41.4.41.41,4,4L94,8A.22.22,0,0,0,94,7.71Z"/><path class="cls-3" d="M88.49,3l.41-.41,2-2L90.6.39a.22.22,0,0,0-.3,0L88.49,2.21,86.68.39a.22.22,0,0,0-.3,0l-.26.26,2,2Z"/><path class="cls-3" d="M87.68,3.83l-.41-.4-2-2-.26.25a.23.23,0,0,0,0,.31l1.81,1.81L83,7.71A.22.22,0,0,0,83,8l.26.26,4-4Z"/><path class="cls-3" d="M88.49,4.65l-.41.41-4,4,.26.26a.22.22,0,0,0,.3,0l3.87-3.87,3.87,3.87a.22.22,0,0,0,.3,0l.26-.26-4-4Z"/></g><g class="cls-2"><path class="cls-3" d="M105.88,7.71,102,3.84,103.82,2a.23.23,0,0,0,0-.31l-.26-.25-2,2-.41.4.41.41,4,4,.26-.26A.22.22,0,0,0,105.88,7.71Z"/><path class="cls-3" d="M100.38,3l.4-.41,2-2-.25-.26a.22.22,0,0,0-.3,0l-1.81,1.82L98.56.39a.22.22,0,0,0-.3,0L98,.65l2,2Z"/><path class="cls-3" d="M99.56,3.83l-.41-.4-2-2-.25.25a.21.21,0,0,0,0,.31l1.81,1.81L94.87,7.71a.22.22,0,0,0,0,.3l.26.26,4-4Z"/><path class="cls-3" d="M100.38,4.65l-.41.41-4,4,.25.26a.22.22,0,0,0,.3,0l3.88-3.87,3.87,3.87a.22.22,0,0,0,.3,0l.26-.26-4-4Z"/></g><g class="cls-2"><path class="cls-3" d="M117.55,7.71l-3.87-3.87L115.49,2a.21.21,0,0,0,0-.31l-.26-.25-2,2-.4.4.4.41,4,4,.25-.26A.22.22,0,0,0,117.55,7.71Z"/><path class="cls-3" d="M112.05,3l.41-.41,2-2-.26-.26a.22.22,0,0,0-.3,0l-1.81,1.82L110.24.39a.22.22,0,0,0-.3,0l-.26.26,2,2Z"/><path class="cls-3" d="M111.24,3.83l-.41-.4-2-2-.26.25a.23.23,0,0,0,0,.31l1.81,1.81-3.87,3.87a.22.22,0,0,0,0,.3l.26.26,4-4Z"/><path class="cls-3" d="M112.05,4.65l-.41.41-4,4,.26.26a.22.22,0,0,0,.3,0l3.87-3.87,3.87,3.87a.23.23,0,0,0,.31,0l.25-.26-4-4Z"/></g><g class="cls-2"><path class="cls-3" d="M70.13,16.72l-3.87-3.87L68.07,11a.23.23,0,0,0,0-.31l-.26-.26-2,2-.41.4.41.41,4,4,.26-.26A.22.22,0,0,0,70.13,16.72Z"/><path class="cls-3" d="M64.63,12l.41-.41,2-2-.26-.26a.22.22,0,0,0-.3,0l-1.81,1.81L62.82,9.4a.22.22,0,0,0-.3,0l-.26.26,2,2Z"/><path class="cls-3" d="M63.81,12.84l-.4-.4-2-2-.25.26a.21.21,0,0,0,0,.31L63,12.85l-3.87,3.87a.22.22,0,0,0,0,.3l.25.26,4-4Z"/><path class="cls-3" d="M64.63,13.66l-.41.41-4,4,.25.26a.23.23,0,0,0,.31,0l3.87-3.87,3.87,3.87a.22.22,0,0,0,.3,0l.26-.26-4-4Z"/></g><g class="cls-2"><path class="cls-3" d="M82,16.72l-3.86-3.87L80,11a.21.21,0,0,0,0-.31l-.25-.26-2,2-.41.4.41.41,4,4L82,17A.2.2,0,0,0,82,16.72Z"/><path class="cls-3" d="M76.51,12l.41-.41,2-2-.25-.26a.23.23,0,0,0-.31,0l-1.81,1.81L74.7,9.4a.22.22,0,0,0-.3,0l-.26.26,2,2Z"/><path class="cls-3" d="M75.7,12.84l-.41-.4-2-2-.26.26a.23.23,0,0,0,0,.31l1.81,1.81L71,16.72a.22.22,0,0,0,0,.3l.26.26,4-4Z"/><path class="cls-3" d="M76.51,13.66l-.4.41-4,4,.26.26a.22.22,0,0,0,.3,0l3.87-3.87,3.88,3.87a.22.22,0,0,0,.3,0l.25-.26-4-4Z"/></g><g class="cls-2"><path class="cls-3" d="M93.91,16.77,90,12.9l1.81-1.81a.22.22,0,0,0,0-.3l-.26-.26-2,2-.41.41.41.41,4,4,.26-.25A.23.23,0,0,0,93.91,16.77Z"/><path class="cls-3" d="M88.41,12.09l.4-.41,2-2-.26-.26a.22.22,0,0,0-.3,0l-1.81,1.81L86.6,9.46a.23.23,0,0,0-.31,0L86,9.72l2,2Z"/><path class="cls-3" d="M87.59,12.9l-.4-.41-2-2-.25.26a.2.2,0,0,0,0,.3l1.81,1.81-3.87,3.87a.21.21,0,0,0,0,.31l.25.25,4-4Z"/><path class="cls-3" d="M88.41,13.72l-.41.41-4,4,.25.26a.23.23,0,0,0,.31,0l3.87-3.88,3.87,3.88a.22.22,0,0,0,.3,0l.26-.26-4-4Z"/></g><g class="cls-2"><path class="cls-3" d="M105.79,16.77l-3.87-3.87,1.81-1.81a.2.2,0,0,0,0-.3l-.25-.26-2,2-.4.41.4.41,4,4,.25-.25A.21.21,0,0,0,105.79,16.77Z"/><path class="cls-3" d="M100.29,12.09l.41-.41,2-2-.25-.26a.23.23,0,0,0-.31,0l-1.81,1.81L98.48,9.46a.22.22,0,0,0-.3,0l-.26.26,2,2Z"/><path class="cls-3" d="M99.48,12.9l-.41-.41-2-2-.26.26a.22.22,0,0,0,0,.3l1.81,1.81-3.87,3.87a.23.23,0,0,0,0,.31l.26.25,4-4Z"/><path class="cls-3" d="M100.29,13.72l-.4.41-4,4,.26.26a.22.22,0,0,0,.3,0l3.87-3.88,3.87,3.88a.23.23,0,0,0,.31,0l.25-.26-4-4Z"/></g><g class="cls-2"><path class="cls-3" d="M117.47,16.77,113.6,12.9l1.81-1.81a.22.22,0,0,0,0-.3l-.26-.26-2,2-.41.41.41.41,4,4,.26-.25A.23.23,0,0,0,117.47,16.77Z"/><path class="cls-3" d="M112,12.09l.41-.41,2-2-.26-.26a.22.22,0,0,0-.3,0L112,11.27l-1.81-1.81a.23.23,0,0,0-.31,0l-.25.26,2,2Z"/><path class="cls-3" d="M111.15,12.9l-.4-.41-2-2-.25.26a.2.2,0,0,0,0,.3l1.81,1.81-3.87,3.87a.21.21,0,0,0,0,.31l.25.25,4-4Z"/><path class="cls-3" d="M112,13.72l-.41.41-4,4,.25.26a.23.23,0,0,0,.31,0L112,14.53l3.87,3.88a.22.22,0,0,0,.3,0l.26-.26-4-4Z"/></g><g class="cls-2"><path class="cls-3" d="M70.13,25.84,66.26,22l1.81-1.81a.22.22,0,0,0,0-.3l-.26-.26-2,2-.41.41.41.41,4,4,.26-.26A.22.22,0,0,0,70.13,25.84Z"/><path class="cls-3" d="M64.63,21.15l.41-.4,2-2-.26-.25a.22.22,0,0,0-.3,0l-1.81,1.81-1.81-1.81a.22.22,0,0,0-.3,0l-.26.25,2,2Z"/><path class="cls-3" d="M63.81,22l-.4-.41-2-2-.25.26a.2.2,0,0,0,0,.3L63,22l-3.87,3.87a.22.22,0,0,0,0,.3l.25.26,4-4Z"/><path class="cls-3" d="M64.63,22.78l-.41.41-4,4,.25.26a.23.23,0,0,0,.31,0l3.87-3.87,3.87,3.87a.22.22,0,0,0,.3,0l.26-.26-4-4Z"/></g><g class="cls-2"><path class="cls-3" d="M82,25.84,78.15,22,80,20.16a.2.2,0,0,0,0-.3l-.25-.26-2,2-.41.41.41.41,4,4,.25-.26A.2.2,0,0,0,82,25.84Z"/><path class="cls-3" d="M76.51,21.15l.41-.4,2-2-.25-.25a.23.23,0,0,0-.31,0l-1.81,1.81L74.7,18.53a.22.22,0,0,0-.3,0l-.26.25,2,2Z"/><path class="cls-3" d="M75.7,22l-.41-.41-2-2-.26.26a.22.22,0,0,0,0,.3L74.88,22,71,25.84a.22.22,0,0,0,0,.3l.26.26,4-4Z"/><path class="cls-3" d="M76.51,22.78l-.4.41-4,4,.26.26a.22.22,0,0,0,.3,0l3.87-3.87,3.88,3.87a.22.22,0,0,0,.3,0l.25-.26-4-4Z"/></g><g class="cls-2"><path class="cls-3" d="M93.91,25.9,90,22l1.81-1.81a.22.22,0,0,0,0-.3l-.26-.26-2,2-.41.41.41.41,4,4,.26-.26A.22.22,0,0,0,93.91,25.9Z"/><path class="cls-3" d="M88.41,21.21l.4-.41,2-2-.26-.25a.2.2,0,0,0-.3,0L88.41,20.4,86.6,18.59a.21.21,0,0,0-.31,0l-.25.25,2,2Z"/><path class="cls-3" d="M87.59,22l-.4-.41-2-2-.25.26a.2.2,0,0,0,0,.3L86.78,22,82.91,25.9a.2.2,0,0,0,0,.3l.25.26,4-4Z"/><path class="cls-3" d="M88.41,22.84l-.41.41-4,4,.25.26a.23.23,0,0,0,.31,0l3.87-3.87,3.87,3.87a.22.22,0,0,0,.3,0l.26-.26-4-4Z"/></g><g class="cls-2"><path class="cls-3" d="M105.79,25.9,101.92,22l1.81-1.81a.2.2,0,0,0,0-.3l-.25-.26-2,2-.4.41.4.41,4,4,.25-.26A.2.2,0,0,0,105.79,25.9Z"/><path class="cls-3" d="M100.29,21.21l.41-.41,2-2-.25-.25a.21.21,0,0,0-.31,0l-1.81,1.81-1.81-1.81a.2.2,0,0,0-.3,0l-.26.25,2,2Z"/><path class="cls-3" d="M99.48,22l-.41-.41-2-2-.26.26a.22.22,0,0,0,0,.3L98.66,22,94.79,25.9a.22.22,0,0,0,0,.3l.26.26,4-4Z"/><path class="cls-3" d="M100.29,22.84l-.4.41-4,4,.26.26a.22.22,0,0,0,.3,0l3.87-3.87,3.87,3.87a.23.23,0,0,0,.31,0l.25-.26-4-4Z"/></g><g class="cls-2"><path class="cls-3" d="M117.47,25.9,113.6,22l1.81-1.81a.22.22,0,0,0,0-.3l-.26-.26-2,2-.41.41.41.41,4,4,.26-.26A.22.22,0,0,0,117.47,25.9Z"/><path class="cls-3" d="M112,21.21l.41-.41,2-2-.26-.25a.2.2,0,0,0-.3,0L112,20.4l-1.81-1.81a.21.21,0,0,0-.31,0l-.25.25,2,2Z"/><path class="cls-3" d="M111.15,22l-.4-.41-2-2-.25.26a.2.2,0,0,0,0,.3L110.34,22l-3.87,3.87a.2.2,0,0,0,0,.3l.25.26,4-4Z"/><path class="cls-3" d="M112,22.84l-.41.41-4,4,.25.26a.23.23,0,0,0,.31,0L112,23.66l3.87,3.87a.22.22,0,0,0,.3,0l.26-.26-4-4Z"/></g><g class="cls-2"><path class="cls-3" d="M70.13,35.79l-3.87-3.87,1.81-1.81a.23.23,0,0,0,0-.31l-.26-.25-2,2-.41.4.41.41,4,4,.26-.26A.22.22,0,0,0,70.13,35.79Z"/><path class="cls-3" d="M64.63,31.1l.41-.41,2-2-.26-.25a.2.2,0,0,0-.3,0l-1.81,1.81-1.81-1.81a.2.2,0,0,0-.3,0l-.26.25,2,2Z"/><path class="cls-3" d="M63.81,31.91l-.4-.4-2-2-.25.25a.21.21,0,0,0,0,.31L63,31.92l-3.87,3.87a.22.22,0,0,0,0,.3l.25.26,4-4Z"/><path class="cls-3" d="M64.63,32.73l-.41.41-4,4,.25.26a.23.23,0,0,0,.31,0l3.87-3.87,3.87,3.87a.22.22,0,0,0,.3,0l.26-.26-4-4Z"/></g><g class="cls-2"><path class="cls-3" d="M82,35.79l-3.86-3.87L80,30.11a.21.21,0,0,0,0-.31l-.25-.25-2,2-.41.4.41.41,4,4,.25-.26A.2.2,0,0,0,82,35.79Z"/><path class="cls-3" d="M76.51,31.1l.41-.41,2-2-.25-.25a.21.21,0,0,0-.31,0l-1.81,1.81L74.7,28.48a.2.2,0,0,0-.3,0l-.26.25,2,2Z"/><path class="cls-3" d="M75.7,31.91l-.41-.4-2-2-.26.25a.23.23,0,0,0,0,.31l1.81,1.81L71,35.79a.22.22,0,0,0,0,.3l.26.26,4-4Z"/><path class="cls-3" d="M76.51,32.73l-.4.41-4,4,.26.26a.22.22,0,0,0,.3,0l3.87-3.87,3.88,3.87a.22.22,0,0,0,.3,0l.25-.26-4-4Z"/></g><g class="cls-2"><path class="cls-3" d="M93.91,35.84,90,32l1.81-1.82a.22.22,0,0,0,0-.3l-.26-.26-2,2-.41.4.41.41,4,4,.26-.26A.23.23,0,0,0,93.91,35.84Z"/><path class="cls-3" d="M88.41,31.16l.4-.41,2-2-.26-.26a.22.22,0,0,0-.3,0l-1.81,1.81L86.6,28.53a.23.23,0,0,0-.31,0l-.25.26,2,2Z"/><path class="cls-3" d="M87.59,32l-.4-.4-2-2-.25.26a.2.2,0,0,0,0,.3L86.78,32l-3.87,3.86a.21.21,0,0,0,0,.31l.25.26,4-4Z"/><path class="cls-3" d="M88.41,32.79,88,33.2l-4,4,.25.26a.23.23,0,0,0,.31,0l3.87-3.88,3.87,3.88a.22.22,0,0,0,.3,0l.26-.26-4-4Z"/></g><g class="cls-2"><path class="cls-3" d="M105.79,35.84,101.92,32l1.81-1.82a.2.2,0,0,0,0-.3l-.25-.26-2,2-.4.4.4.41,4,4,.25-.26A.21.21,0,0,0,105.79,35.84Z"/><path class="cls-3" d="M100.29,31.16l.41-.41,2-2-.25-.26a.23.23,0,0,0-.31,0l-1.81,1.81-1.81-1.81a.22.22,0,0,0-.3,0l-.26.26,2,2Z"/><path class="cls-3" d="M99.48,32l-.41-.4-2-2-.26.26a.22.22,0,0,0,0,.3L98.66,32l-3.87,3.86a.23.23,0,0,0,0,.31l.26.26,4-4Z"/><path class="cls-3" d="M100.29,32.79l-.4.41-4,4,.26.26a.22.22,0,0,0,.3,0l3.87-3.88,3.87,3.88a.23.23,0,0,0,.31,0l.25-.26-4-4Z"/></g><g class="cls-2"><path class="cls-3" d="M117.47,35.84,113.6,32l1.81-1.82a.22.22,0,0,0,0-.3l-.26-.26-2,2-.41.4.41.41,4,4,.26-.26A.23.23,0,0,0,117.47,35.84Z"/><path class="cls-3" d="M112,31.16l.41-.41,2-2-.26-.26a.22.22,0,0,0-.3,0L112,30.34l-1.81-1.81a.23.23,0,0,0-.31,0l-.25.26,2,2Z"/><path class="cls-3" d="M111.15,32l-.4-.4-2-2-.25.26a.2.2,0,0,0,0,.3L110.34,32l-3.87,3.86a.21.21,0,0,0,0,.31l.25.26,4-4Z"/><path class="cls-3" d="M112,32.79l-.41.41-4,4,.25.26a.23.23,0,0,0,.31,0L112,33.6l3.87,3.88a.22.22,0,0,0,.3,0l.26-.26-4-4Z"/></g><g class="cls-2"><path class="cls-3" d="M70.13,45.79l-3.87-3.87,1.81-1.81a.22.22,0,0,0,0-.3l-.26-.26-2,2-.41.41.41.41,4,4,.26-.26A.22.22,0,0,0,70.13,45.79Z"/><path class="cls-3" d="M64.63,41.1l.41-.4,2-2-.26-.26a.22.22,0,0,0-.3,0l-1.81,1.81-1.81-1.81a.22.22,0,0,0-.3,0l-.26.26,2,2Z"/><path class="cls-3" d="M63.81,41.92l-.4-.41-2-2-.25.26a.2.2,0,0,0,0,.3L63,41.92l-3.87,3.87a.22.22,0,0,0,0,.3l.25.26,4-4Z"/><path class="cls-3" d="M64.63,42.73l-.41.41-4,4,.25.26a.23.23,0,0,0,.31,0l3.87-3.87,3.87,3.87a.22.22,0,0,0,.3,0l.26-.26-4-4Z"/></g><g class="cls-2"><path class="cls-3" d="M82,45.79l-3.86-3.87L80,40.11a.2.2,0,0,0,0-.3l-.25-.26-2,2-.41.41.41.41,4,4,.25-.26A.2.2,0,0,0,82,45.79Z"/><path class="cls-3" d="M76.51,41.1l.41-.4,2-2-.25-.26a.23.23,0,0,0-.31,0l-1.81,1.81L74.7,38.48a.22.22,0,0,0-.3,0l-.26.26,2,2Z"/><path class="cls-3" d="M75.7,41.92l-.41-.41-2-2-.26.26a.22.22,0,0,0,0,.3l1.81,1.81L71,45.79a.22.22,0,0,0,0,.3l.26.26,4-4Z"/><path class="cls-3" d="M76.51,42.73l-.4.41-4,4,.26.26a.22.22,0,0,0,.3,0l3.87-3.87,3.88,3.87a.22.22,0,0,0,.3,0l.25-.26-4-4Z"/></g><g class="cls-2"><path class="cls-3" d="M93.91,45.85,90,42l1.81-1.81a.22.22,0,0,0,0-.3l-.26-.26-2,2-.41.41.41.41,4,4,.26-.26A.22.22,0,0,0,93.91,45.85Z"/><path class="cls-3" d="M88.41,41.16l.4-.41,2-2-.26-.25a.2.2,0,0,0-.3,0l-1.81,1.81L86.6,38.54a.21.21,0,0,0-.31,0l-.25.25,2,2Z"/><path class="cls-3" d="M87.59,42l-.4-.41-2-2-.25.26a.2.2,0,0,0,0,.3L86.78,42l-3.87,3.87a.2.2,0,0,0,0,.3l.25.26,4-4Z"/><path class="cls-3" d="M88.41,42.79,88,43.2l-4,4,.25.26a.23.23,0,0,0,.31,0l3.87-3.87,3.87,3.87a.22.22,0,0,0,.3,0l.26-.26-4-4Z"/></g><g class="cls-2"><path class="cls-3" d="M105.79,45.85,101.92,42l1.81-1.81a.2.2,0,0,0,0-.3l-.25-.26-2,2-.4.41.4.41,4,4,.25-.26A.2.2,0,0,0,105.79,45.85Z"/><path class="cls-3" d="M100.29,41.16l.41-.41,2-2-.25-.25a.21.21,0,0,0-.31,0l-1.81,1.81-1.81-1.81a.2.2,0,0,0-.3,0l-.26.25,2,2Z"/><path class="cls-3" d="M99.48,42l-.41-.41-2-2-.26.26a.22.22,0,0,0,0,.3L98.66,42l-3.87,3.87a.22.22,0,0,0,0,.3l.26.26,4-4Z"/><path class="cls-3" d="M100.29,42.79l-.4.41-4,4,.26.26a.22.22,0,0,0,.3,0l3.87-3.87,3.87,3.87a.23.23,0,0,0,.31,0l.25-.26-4-4Z"/></g><g class="cls-2"><path class="cls-3" d="M117.47,45.85,113.6,42l1.81-1.81a.22.22,0,0,0,0-.3l-.26-.26-2,2-.41.41.41.41,4,4,.26-.26A.22.22,0,0,0,117.47,45.85Z"/><path class="cls-3" d="M112,41.16l.41-.41,2-2-.26-.25a.2.2,0,0,0-.3,0L112,40.35l-1.81-1.81a.21.21,0,0,0-.31,0l-.25.25,2,2Z"/><path class="cls-3" d="M111.15,42l-.4-.41-2-2-.25.26a.2.2,0,0,0,0,.3L110.34,42l-3.87,3.87a.2.2,0,0,0,0,.3l.25.26,4-4Z"/><path class="cls-3" d="M112,42.79l-.41.41-4,4,.25.26a.23.23,0,0,0,.31,0L112,43.61l3.87,3.87a.22.22,0,0,0,.3,0l.26-.26-4-4Z"/></g><rect class="cls-1" y="48.17" width="58.85" height="48.17"/><g class="cls-2"><path class="cls-3" d="M11.34,55.82,7.47,52l1.81-1.81a.23.23,0,0,0,0-.31L9,49.58l-2,2L6.65,52l.41.41,4,4,.26-.26A.22.22,0,0,0,11.34,55.82Z"/><path class="cls-3" d="M5.84,51.13l.41-.41,2-2L8,48.51a.2.2,0,0,0-.3,0L5.84,50.32,4,48.51a.21.21,0,0,0-.31,0l-.25.25,2,2Z"/><path class="cls-3" d="M5,52l-.4-.41-2-2-.25.25a.21.21,0,0,0,0,.31L4.21,52,.34,55.82a.2.2,0,0,0,0,.3l.25.26,4-4Z"/><path class="cls-3" d="M5.84,52.76l-.41.41-4,4,.25.26a.23.23,0,0,0,.31,0l3.87-3.87,3.87,3.87a.22.22,0,0,0,.3,0l.26-.26-4-4Z"/></g><g class="cls-2"><path class="cls-3" d="M23.22,55.82,19.35,52l1.81-1.81a.21.21,0,0,0,0-.31l-.25-.25-2,2-.4.41.4.41,4,4,.25-.26A.2.2,0,0,0,23.22,55.82Z"/><path class="cls-3" d="M17.72,51.13l.41-.41,2-2-.25-.25a.21.21,0,0,0-.31,0l-1.81,1.81-1.81-1.81a.2.2,0,0,0-.3,0l-.26.25,2,2Z"/><path class="cls-3" d="M16.91,52l-.41-.41-2-2-.26.25a.23.23,0,0,0,0,.31L16.09,52l-3.87,3.87a.22.22,0,0,0,0,.3l.26.26,4-4Z"/><path class="cls-3" d="M17.72,52.76l-.4.41-4,4,.26.26a.22.22,0,0,0,.3,0l3.87-3.87,3.87,3.87a.23.23,0,0,0,.31,0l.25-.26-4-4Z"/></g><g class="cls-2"><path class="cls-3" d="M35.12,55.87,31.25,52l1.81-1.81a.23.23,0,0,0,0-.31l-.26-.26-2,2-.41.4.41.41,4,4,.26-.26A.23.23,0,0,0,35.12,55.87Z"/><path class="cls-3" d="M29.62,51.19l.4-.41,2-2-.26-.26a.22.22,0,0,0-.3,0l-1.81,1.81-1.81-1.81a.23.23,0,0,0-.31,0l-.25.26,2,2Z"/><path class="cls-3" d="M28.8,52l-.41-.4-2-2-.25.26a.21.21,0,0,0,0,.31L28,52l-3.87,3.86a.21.21,0,0,0,0,.31l.25.26,4-4Z"/><path class="cls-3" d="M29.62,52.82l-.41.41-4,4,.25.26a.22.22,0,0,0,.3,0l3.88-3.87,3.87,3.87a.22.22,0,0,0,.3,0l.26-.26-4-4Z"/></g><g class="cls-2"><path class="cls-3" d="M47,55.87,43.13,52l1.81-1.81a.21.21,0,0,0,0-.31l-.25-.26-2,2-.4.4.4.41,4,4,.25-.26A.23.23,0,0,0,47,55.87Z"/><path class="cls-3" d="M41.5,51.19l.41-.41,2-2-.26-.26a.22.22,0,0,0-.3,0L41.5,50.37l-1.81-1.81a.22.22,0,0,0-.3,0l-.26.26,2,2Z"/><path class="cls-3" d="M40.69,52l-.41-.4-2-2-.26.26a.23.23,0,0,0,0,.31L39.87,52,36,55.87a.23.23,0,0,0,0,.31l.26.26,4-4Z"/><path class="cls-3" d="M41.5,52.82l-.41.41-4,4,.26.26a.22.22,0,0,0,.3,0l3.87-3.87,3.87,3.87a.23.23,0,0,0,.31,0l.25-.26-4-4Z"/></g><g class="cls-2"><path class="cls-3" d="M58.68,55.87,54.81,52l1.81-1.81a.23.23,0,0,0,0-.31l-.26-.26-2,2L54,52l.41.41,4,4,.26-.26A.23.23,0,0,0,58.68,55.87Z"/><path class="cls-3" d="M53.18,51.19l.4-.41,2-2-.26-.26a.22.22,0,0,0-.3,0l-1.81,1.81-1.81-1.81a.23.23,0,0,0-.31,0l-.25.26,2,2Z"/><path class="cls-3" d="M52.36,52l-.4-.4-2-2-.25.26a.21.21,0,0,0,0,.31L51.55,52l-3.87,3.86a.21.21,0,0,0,0,.31l.25.26,4-4Z"/><path class="cls-3" d="M53.18,52.82l-.41.41-4,4,.25.26a.23.23,0,0,0,.31,0l3.87-3.87,3.87,3.87a.22.22,0,0,0,.3,0l.26-.26-4-4Z"/></g><g class="cls-2"><path class="cls-3" d="M11.26,64.88,7.39,61l1.8-1.82a.2.2,0,0,0,0-.3l-.25-.26-2,2-.41.4.41.41,4,4,.26-.26A.23.23,0,0,0,11.26,64.88Z"/><path class="cls-3" d="M5.75,60.2l.41-.41,2-2-.25-.26a.22.22,0,0,0-.3,0L5.75,59.38,3.94,57.57a.22.22,0,0,0-.3,0l-.25.26,2,2Z"/><path class="cls-3" d="M4.94,61l-.41-.4-2-2-.25.26a.2.2,0,0,0,0,.3L4.13,61,.25,64.88a.23.23,0,0,0,0,.31l.26.26,4-4Z"/><path class="cls-3" d="M5.75,61.83l-.4.41-4,4,.26.26a.22.22,0,0,0,.3,0l3.87-3.88,3.88,3.88a.22.22,0,0,0,.3,0l.26-.26-4-4Z"/></g><g class="cls-2"><path class="cls-3" d="M23.14,64.88,19.27,61l1.81-1.82a.2.2,0,0,0,0-.3l-.26-.26-2,2-.41.4.41.41,4,4,.26-.26A.23.23,0,0,0,23.14,64.88Z"/><path class="cls-3" d="M17.64,60.2l.41-.41,2-2-.26-.26a.22.22,0,0,0-.3,0l-1.81,1.81-1.81-1.81a.22.22,0,0,0-.3,0l-.26.26,2,2Z"/><path class="cls-3" d="M16.83,61l-.41-.4-2-2-.26.26a.22.22,0,0,0,0,.3L16,61l-3.87,3.86a.23.23,0,0,0,0,.31l.26.26,4-4Z"/><path class="cls-3" d="M17.64,61.83l-.41.41-4,4,.26.26a.22.22,0,0,0,.3,0l3.87-3.88,3.87,3.88a.22.22,0,0,0,.3,0l.26-.26-4-4Z"/></g><g class="cls-2"><path class="cls-3" d="M35,64.94l-3.86-3.87L33,59.26a.2.2,0,0,0,0-.3l-.25-.26-2,2-.41.41.41.41,4,4,.25-.26A.2.2,0,0,0,35,64.94Z"/><path class="cls-3" d="M29.53,60.26l.41-.41,2-2-.25-.26a.23.23,0,0,0-.31,0l-1.81,1.81-1.81-1.81a.22.22,0,0,0-.3,0l-.26.26,2,2Z"/><path class="cls-3" d="M28.72,61.07l-.41-.41-2-2-.26.26a.22.22,0,0,0,0,.3l1.81,1.81L24,64.94a.22.22,0,0,0,0,.3l.26.26,4-4Z"/><path class="cls-3" d="M29.53,61.88l-.4.41-4,4,.26.25a.2.2,0,0,0,.3,0l3.87-3.87,3.88,3.87a.2.2,0,0,0,.3,0l.25-.25-4-4Z"/></g><g class="cls-2"><path class="cls-3" d="M46.92,64.94l-3.87-3.87,1.81-1.81a.22.22,0,0,0,0-.3l-.26-.26-2,2-.41.41.41.41,4,4,.26-.26A.22.22,0,0,0,46.92,64.94Z"/><path class="cls-3" d="M41.42,60.26l.41-.41,2-2-.26-.26a.22.22,0,0,0-.3,0l-1.81,1.81-1.81-1.81a.22.22,0,0,0-.3,0l-.26.26,2,2Z"/><path class="cls-3" d="M40.6,61.07l-.4-.41-2-2L38,59a.2.2,0,0,0,0,.3l1.81,1.81-3.87,3.87a.22.22,0,0,0,0,.3l.25.26,4-4Z"/><path class="cls-3" d="M41.42,61.88l-.41.41-4,4,.25.25a.21.21,0,0,0,.31,0l3.87-3.87,3.87,3.87a.2.2,0,0,0,.3,0l.26-.25-4-4Z"/></g><g class="cls-2"><path class="cls-3" d="M58.6,64.94l-3.87-3.87,1.8-1.81a.2.2,0,0,0,0-.3l-.25-.26-2,2-.41.41.41.41,4,4,.26-.26A.22.22,0,0,0,58.6,64.94Z"/><path class="cls-3" d="M53.09,60.26l.41-.41,2-2-.25-.26a.23.23,0,0,0-.31,0l-1.81,1.81-1.81-1.81a.22.22,0,0,0-.3,0l-.25.26,2,2Z"/><path class="cls-3" d="M52.28,61.07l-.41-.41-2-2-.26.26a.22.22,0,0,0,0,.3l1.82,1.81-3.88,3.87a.22.22,0,0,0,0,.3l.26.26,4-4Z"/><path class="cls-3" d="M53.09,61.88l-.4.41-4,4,.26.25a.2.2,0,0,0,.3,0l3.87-3.87L57,66.57a.2.2,0,0,0,.3,0l.25-.25-4-4Z"/></g><g class="cls-2"><path class="cls-3" d="M11.26,74,7.39,70.14l1.8-1.81a.2.2,0,0,0,0-.3l-.25-.26-2,2-.41.41.41.41,4,4,.26-.26A.22.22,0,0,0,11.26,74Z"/><path class="cls-3" d="M5.75,69.32l.41-.4,2-2-.25-.25a.22.22,0,0,0-.3,0L5.75,68.51,3.94,66.7a.22.22,0,0,0-.3,0L3.39,67l2,2Z"/><path class="cls-3" d="M4.94,70.14l-.41-.41-2-2L2.32,68a.2.2,0,0,0,0,.3l1.81,1.81L.25,74a.22.22,0,0,0,0,.3l.26.26,4-4Z"/><path class="cls-3" d="M5.75,71l-.4.41-4,4,.26.26a.22.22,0,0,0,.3,0l3.87-3.87,3.88,3.87a.22.22,0,0,0,.3,0l.26-.26-4-4Z"/></g><g class="cls-2"><path class="cls-3" d="M23.14,74l-3.87-3.87,1.81-1.81a.2.2,0,0,0,0-.3l-.26-.26-2,2-.41.41.41.41,4,4,.26-.26A.22.22,0,0,0,23.14,74Z"/><path class="cls-3" d="M17.64,69.32l.41-.4,2-2-.26-.25a.22.22,0,0,0-.3,0l-1.81,1.81L15.83,66.7a.22.22,0,0,0-.3,0l-.26.25,2,2Z"/><path class="cls-3" d="M16.83,70.14l-.41-.41-2-2L14.2,68a.22.22,0,0,0,0,.3L16,70.14,12.14,74a.22.22,0,0,0,0,.3l.26.26,4-4Z"/><path class="cls-3" d="M17.64,71l-.41.41-4,4,.26.26a.22.22,0,0,0,.3,0l3.87-3.87,3.87,3.87a.22.22,0,0,0,.3,0l.26-.26-4-4Z"/></g><g class="cls-2"><path class="cls-3" d="M35,74.07,31.17,70.2,33,68.39a.21.21,0,0,0,0-.31l-.25-.25-2,2-.41.41.41.41,4,4,.25-.26A.2.2,0,0,0,35,74.07Z"/><path class="cls-3" d="M29.53,69.38l.41-.41,2-2-.25-.25a.21.21,0,0,0-.31,0l-1.81,1.81-1.81-1.81a.2.2,0,0,0-.3,0l-.26.25,2,2Z"/><path class="cls-3" d="M28.72,70.2l-.41-.41-2-2-.26.25a.23.23,0,0,0,0,.31L27.9,70.2,24,74.07a.22.22,0,0,0,0,.3l.26.26,4-4Z"/><path class="cls-3" d="M29.53,71l-.4.41-4,4,.26.26a.22.22,0,0,0,.3,0l3.87-3.87,3.88,3.87a.22.22,0,0,0,.3,0l.25-.26-4-4Z"/></g><g class="cls-2"><path class="cls-3" d="M46.92,74.07,43.05,70.2l1.81-1.81a.23.23,0,0,0,0-.31l-.26-.25-2,2-.41.41.41.41,4,4,.26-.26A.22.22,0,0,0,46.92,74.07Z"/><path class="cls-3" d="M41.42,69.38l.41-.41,2-2-.26-.25a.2.2,0,0,0-.3,0l-1.81,1.81-1.81-1.81a.2.2,0,0,0-.3,0l-.26.25,2,2Z"/><path class="cls-3" d="M40.6,70.2l-.4-.41-2-2-.25.25a.21.21,0,0,0,0,.31l1.81,1.81-3.87,3.87a.22.22,0,0,0,0,.3l.25.26,4-4Z"/><path class="cls-3" d="M41.42,71l-.41.41-4,4,.25.26a.23.23,0,0,0,.31,0l3.87-3.87,3.87,3.87a.22.22,0,0,0,.3,0l.26-.26-4-4Z"/></g><g class="cls-2"><path class="cls-3" d="M58.6,74.07,54.73,70.2l1.8-1.81a.21.21,0,0,0,0-.31l-.25-.25-2,2-.41.41.41.41,4,4,.26-.26A.22.22,0,0,0,58.6,74.07Z"/><path class="cls-3" d="M53.09,69.38,53.5,69l2-2-.25-.25a.21.21,0,0,0-.31,0l-1.81,1.81-1.81-1.81a.2.2,0,0,0-.3,0l-.25.25,2,2Z"/><path class="cls-3" d="M52.28,70.2l-.41-.41-2-2-.26.25a.23.23,0,0,0,0,.31l1.82,1.81-3.88,3.87a.22.22,0,0,0,0,.3l.26.26,4-4Z"/><path class="cls-3" d="M53.09,71l-.4.41-4,4,.26.26a.22.22,0,0,0,.3,0l3.87-3.87L57,75.7a.22.22,0,0,0,.3,0l.25-.26-4-4Z"/></g><g class="cls-2"><path class="cls-3" d="M11.26,84,7.39,80.09l1.8-1.81a.21.21,0,0,0,0-.31l-.25-.26-2,2-.41.4.41.41,4,4,.26-.26A.22.22,0,0,0,11.26,84Z"/><path class="cls-3" d="M5.75,79.27l.41-.41,2-2-.25-.26a.22.22,0,0,0-.3,0L5.75,78.45,3.94,76.64a.22.22,0,0,0-.3,0l-.25.26,2,2Z"/><path class="cls-3" d="M4.94,80.08l-.41-.4-2-2L2.32,78a.21.21,0,0,0,0,.31l1.81,1.81L.25,84a.22.22,0,0,0,0,.3l.26.26,4-4Z"/><path class="cls-3" d="M5.75,80.9l-.4.41-4,4,.26.26a.22.22,0,0,0,.3,0l3.87-3.87,3.88,3.87a.22.22,0,0,0,.3,0l.26-.26-4-4Z"/></g><g class="cls-2"><path class="cls-3" d="M23.14,84l-3.87-3.87,1.81-1.81a.21.21,0,0,0,0-.31l-.26-.26-2,2-.41.4.41.41,4,4,.26-.26A.22.22,0,0,0,23.14,84Z"/><path class="cls-3" d="M17.64,79.27l.41-.41,2-2-.26-.26a.22.22,0,0,0-.3,0l-1.81,1.81-1.81-1.81a.22.22,0,0,0-.3,0l-.26.26,2,2Z"/><path class="cls-3" d="M16.83,80.08l-.41-.4-2-2L14.2,78a.23.23,0,0,0,0,.31L16,80.09,12.14,84a.22.22,0,0,0,0,.3l.26.26,4-4Z"/><path class="cls-3" d="M17.64,80.9l-.41.41-4,4,.26.26a.22.22,0,0,0,.3,0l3.87-3.87,3.87,3.87a.22.22,0,0,0,.3,0l.26-.26-4-4Z"/></g><g class="cls-2"><path class="cls-3" d="M35,84l-3.86-3.87L33,78.33a.2.2,0,0,0,0-.3l-.25-.26-2,2-.41.41.41.41,4,4,.25-.25A.21.21,0,0,0,35,84Z"/><path class="cls-3" d="M29.53,79.33l.41-.41,2-2-.25-.26a.23.23,0,0,0-.31,0l-1.81,1.81L27.72,76.7a.22.22,0,0,0-.3,0l-.26.26,2,2Z"/><path class="cls-3" d="M28.72,80.14l-.41-.41-2-2-.26.26a.22.22,0,0,0,0,.3l1.81,1.81L24,84a.23.23,0,0,0,0,.31l.26.25,4-4Z"/><path class="cls-3" d="M29.53,81l-.4.41-4,4,.26.25a.2.2,0,0,0,.3,0l3.87-3.87,3.88,3.87a.2.2,0,0,0,.3,0l.25-.25-4-4Z"/></g><g class="cls-2"><path class="cls-3" d="M46.92,84l-3.87-3.87,1.81-1.81a.22.22,0,0,0,0-.3l-.26-.26-2,2-.41.41.41.41,4,4,.26-.25A.23.23,0,0,0,46.92,84Z"/><path class="cls-3" d="M41.42,79.33l.41-.41,2-2-.26-.26a.22.22,0,0,0-.3,0l-1.81,1.81L39.61,76.7a.22.22,0,0,0-.3,0l-.26.26,2,2Z"/><path class="cls-3" d="M40.6,80.14l-.4-.41-2-2L38,78a.2.2,0,0,0,0,.3l1.81,1.81L35.92,84a.23.23,0,0,0,0,.31l.25.25,4-4Z"/><path class="cls-3" d="M41.42,81l-.41.41-4,4,.25.25a.21.21,0,0,0,.31,0l3.87-3.87,3.87,3.87a.2.2,0,0,0,.3,0l.26-.25-4-4Z"/></g><g class="cls-2"><path class="cls-3" d="M58.6,84l-3.87-3.87,1.8-1.81a.2.2,0,0,0,0-.3l-.25-.26-2,2-.41.41.41.41,4,4,.26-.25A.23.23,0,0,0,58.6,84Z"/><path class="cls-3" d="M53.09,79.33l.41-.41,2-2-.25-.26a.23.23,0,0,0-.31,0l-1.81,1.81L51.28,76.7a.22.22,0,0,0-.3,0l-.25.26,2,2Z"/><path class="cls-3" d="M52.28,80.14l-.41-.41-2-2-.26.26a.22.22,0,0,0,0,.3l1.82,1.81L47.59,84a.23.23,0,0,0,0,.31l.26.25,4-4Z"/><path class="cls-3" d="M53.09,81l-.4.41-4,4,.26.25a.2.2,0,0,0,.3,0l3.87-3.87L57,85.64a.2.2,0,0,0,.3,0l.25-.25-4-4Z"/></g><g class="cls-2"><path class="cls-3" d="M11.26,94,7.39,90.09l1.8-1.81a.2.2,0,0,0,0-.3l-.25-.26-2,2-.41.41L7,90.5l4,4,.26-.26A.22.22,0,0,0,11.26,94Z"/><path class="cls-3" d="M5.75,89.27l.41-.4,2-2-.25-.25a.22.22,0,0,0-.3,0L5.75,88.46,3.94,86.65a.22.22,0,0,0-.3,0l-.25.25,2,2Z"/><path class="cls-3" d="M4.94,90.09l-.41-.41-2-2L2.32,88a.2.2,0,0,0,0,.3l1.81,1.81L.25,94a.22.22,0,0,0,0,.3l.26.26,4-4Z"/><path class="cls-3" d="M5.75,90.9l-.4.41-4,4,.26.26a.22.22,0,0,0,.3,0l3.87-3.87,3.88,3.87a.22.22,0,0,0,.3,0l.26-.26-4-4Z"/></g><g class="cls-2"><path class="cls-3" d="M23.14,94l-3.87-3.87,1.81-1.81a.2.2,0,0,0,0-.3l-.26-.26-2,2-.41.41.41.41,4,4,.26-.26A.22.22,0,0,0,23.14,94Z"/><path class="cls-3" d="M17.64,89.27l.41-.4,2-2-.26-.25a.22.22,0,0,0-.3,0l-1.81,1.81-1.81-1.81a.22.22,0,0,0-.3,0l-.26.25,2,2Z"/><path class="cls-3" d="M16.83,90.09l-.41-.41-2-2L14.2,88a.22.22,0,0,0,0,.3L16,90.09,12.14,94a.22.22,0,0,0,0,.3l.26.26,4-4Z"/><path class="cls-3" d="M17.64,90.9l-.41.41-4,4,.26.26a.22.22,0,0,0,.3,0l3.87-3.87,3.87,3.87a.22.22,0,0,0,.3,0l.26-.26-4-4Z"/></g><g class="cls-2"><path class="cls-3" d="M35,94l-3.86-3.87L33,88.34A.21.21,0,0,0,33,88l-.25-.25-2,2-.41.41.41.41,4,4,.25-.26A.2.2,0,0,0,35,94Z"/><path class="cls-3" d="M29.53,89.33l.41-.41,2-2-.25-.25a.21.21,0,0,0-.31,0l-1.81,1.81-1.81-1.81a.2.2,0,0,0-.3,0l-.26.25,2,2Z"/><path class="cls-3" d="M28.72,90.15l-.41-.41-2-2-.26.25a.23.23,0,0,0,0,.31l1.81,1.81L24,94a.22.22,0,0,0,0,.3l.26.26,4-4Z"/><path class="cls-3" d="M29.53,91l-.4.41-4,4,.26.26a.22.22,0,0,0,.3,0l3.87-3.87,3.88,3.87a.22.22,0,0,0,.3,0l.25-.26-4-4Z"/></g><g class="cls-2"><path class="cls-3" d="M46.92,94l-3.87-3.87,1.81-1.81a.23.23,0,0,0,0-.31l-.26-.25-2,2-.41.41.41.41,4,4,.26-.26A.22.22,0,0,0,46.92,94Z"/><path class="cls-3" d="M41.42,89.33l.41-.41,2-2-.26-.25a.2.2,0,0,0-.3,0l-1.81,1.81-1.81-1.81a.2.2,0,0,0-.3,0l-.26.25,2,2Z"/><path class="cls-3" d="M40.6,90.15l-.4-.41-2-2L38,88a.21.21,0,0,0,0,.31l1.81,1.81L35.92,94a.22.22,0,0,0,0,.3l.25.26,4-4Z"/><path class="cls-3" d="M41.42,91l-.41.41-4,4,.25.26a.23.23,0,0,0,.31,0l3.87-3.87,3.87,3.87a.22.22,0,0,0,.3,0l.26-.26-4-4Z"/></g><g class="cls-2"><path class="cls-3" d="M58.6,94l-3.87-3.87,1.8-1.81a.21.21,0,0,0,0-.31l-.25-.25-2,2-.41.41.41.41,4,4,.26-.26A.22.22,0,0,0,58.6,94Z"/><path class="cls-3" d="M53.09,89.33l.41-.41,2-2-.25-.25a.21.21,0,0,0-.31,0l-1.81,1.81-1.81-1.81a.2.2,0,0,0-.3,0l-.25.25,2,2Z"/><path class="cls-3" d="M52.28,90.15l-.41-.41-2-2-.26.25a.23.23,0,0,0,0,.31l1.82,1.81L47.59,94a.22.22,0,0,0,0,.3l.26.26,4-4Z"/><path class="cls-3" d="M53.09,91l-.4.41-4,4,.26.26a.22.22,0,0,0,.3,0l3.87-3.87L57,95.65a.22.22,0,0,0,.3,0l.25-.26-4-4Z"/></g><rect class="cls-1" x="58.87" y="48.17" width="58.85" height="48.17"/><g class="cls-2"><path class="cls-3" d="M70.21,55.82,66.34,52l1.81-1.81a.21.21,0,0,0,0-.31l-.25-.25-2,2-.4.41.4.41,4,4,.25-.26A.22.22,0,0,0,70.21,55.82Z"/><path class="cls-3" d="M64.71,51.13l.41-.41,2-2-.26-.25a.2.2,0,0,0-.3,0l-1.81,1.81L62.9,48.51a.2.2,0,0,0-.3,0l-.26.25,2,2Z"/><path class="cls-3" d="M63.9,52l-.41-.41-2-2-.26.25a.23.23,0,0,0,0,.31L63.08,52l-3.87,3.87a.22.22,0,0,0,0,.3l.26.26,4-4Z"/><path class="cls-3" d="M64.71,52.76l-.41.41-4,4,.26.26a.22.22,0,0,0,.3,0l3.87-3.87,3.87,3.87a.23.23,0,0,0,.31,0l.25-.26-4-4Z"/></g><g class="cls-2"><path class="cls-3" d="M82.1,55.82,78.23,52,80,50.14a.23.23,0,0,0,0-.31l-.26-.25-2,2-.41.41.41.41,4,4,.26-.26A.22.22,0,0,0,82.1,55.82Z"/><path class="cls-3" d="M76.6,51.13l.4-.41,2-2-.26-.25a.2.2,0,0,0-.3,0L76.6,50.32l-1.81-1.81a.21.21,0,0,0-.31,0l-.25.25,2,2Z"/><path class="cls-3" d="M75.78,52l-.4-.41-2-2-.25.25a.21.21,0,0,0,0,.31L75,52,71.1,55.82a.2.2,0,0,0,0,.3l.25.26,4-4Z"/><path class="cls-3" d="M76.6,52.76l-.41.41-4,4,.25.26a.23.23,0,0,0,.31,0l3.87-3.87,3.87,3.87a.22.22,0,0,0,.3,0l.26-.26-4-4Z"/></g><g class="cls-2"><path class="cls-3" d="M94,55.87,90.12,52l1.81-1.81a.21.21,0,0,0,0-.31l-.26-.26-2,2-.41.4.41.41,4,4,.25-.26A.23.23,0,0,0,94,55.87Z"/><path class="cls-3" d="M88.49,51.19l.41-.41,2-2-.26-.26a.22.22,0,0,0-.3,0l-1.81,1.81-1.81-1.81a.22.22,0,0,0-.3,0l-.26.26,2,2Z"/><path class="cls-3" d="M87.68,52l-.41-.4-2-2-.26.26a.23.23,0,0,0,0,.31L86.86,52,83,55.87a.23.23,0,0,0,0,.31l.26.26,4-4Z"/><path class="cls-3" d="M88.49,52.82l-.41.41-4,4,.26.26a.22.22,0,0,0,.3,0l3.87-3.87,3.87,3.87a.22.22,0,0,0,.3,0l.26-.26-4-4Z"/></g><g class="cls-2"><path class="cls-3" d="M105.88,55.87,102,52l1.81-1.81a.23.23,0,0,0,0-.31l-.26-.26-2,2-.41.4.41.41,4,4,.26-.26A.23.23,0,0,0,105.88,55.87Z"/><path class="cls-3" d="M100.38,51.19l.4-.41,2-2-.25-.26a.22.22,0,0,0-.3,0l-1.81,1.81-1.82-1.81a.22.22,0,0,0-.3,0l-.25.26,2,2Z"/><path class="cls-3" d="M99.56,52l-.41-.4-2-2-.25.26a.21.21,0,0,0,0,.31L98.75,52l-3.88,3.86a.23.23,0,0,0,0,.31l.26.26,4-4Z"/><path class="cls-3" d="M100.38,52.82l-.41.41-4,4,.25.26a.22.22,0,0,0,.3,0l3.88-3.87,3.87,3.87a.22.22,0,0,0,.3,0l.26-.26-4-4Z"/></g><g class="cls-2"><path class="cls-3" d="M117.55,55.87,113.68,52l1.81-1.81a.21.21,0,0,0,0-.31l-.26-.26-2,2-.4.4.4.41,4,4,.25-.26A.23.23,0,0,0,117.55,55.87Z"/><path class="cls-3" d="M112.05,51.19l.41-.41,2-2-.26-.26a.22.22,0,0,0-.3,0l-1.81,1.81-1.81-1.81a.22.22,0,0,0-.3,0l-.26.26,2,2Z"/><path class="cls-3" d="M111.24,52l-.41-.4-2-2-.26.26a.23.23,0,0,0,0,.31L110.42,52l-3.87,3.86a.23.23,0,0,0,0,.31l.26.26,4-4Z"/><path class="cls-3" d="M112.05,52.82l-.41.41-4,4,.26.26a.22.22,0,0,0,.3,0l3.87-3.87,3.87,3.87a.23.23,0,0,0,.31,0l.25-.26-4-4Z"/></g><g class="cls-2"><path class="cls-3" d="M70.13,64.88,66.26,61l1.81-1.82a.22.22,0,0,0,0-.3l-.26-.26-2,2-.41.4.41.41,4,4,.26-.26A.23.23,0,0,0,70.13,64.88Z"/><path class="cls-3" d="M64.63,60.2l.41-.41,2-2-.26-.26a.22.22,0,0,0-.3,0l-1.81,1.81-1.81-1.81a.22.22,0,0,0-.3,0l-.26.26,2,2Z"/><path class="cls-3" d="M63.81,61l-.4-.4-2-2-.25.26a.2.2,0,0,0,0,.3L63,61l-3.87,3.86a.23.23,0,0,0,0,.31l.25.26,4-4Z"/><path class="cls-3" d="M64.63,61.83l-.41.41-4,4,.25.26a.23.23,0,0,0,.31,0l3.87-3.88,3.87,3.88a.22.22,0,0,0,.3,0l.26-.26-4-4Z"/></g><g class="cls-2"><path class="cls-3" d="M82,64.88,78.15,61,80,59.2a.2.2,0,0,0,0-.3l-.25-.26-2,2-.41.4.41.41,4,4,.25-.26A.21.21,0,0,0,82,64.88Z"/><path class="cls-3" d="M76.51,60.2l.41-.41,2-2-.25-.26a.23.23,0,0,0-.31,0l-1.81,1.81L74.7,57.57a.22.22,0,0,0-.3,0l-.26.26,2,2Z"/><path class="cls-3" d="M75.7,61l-.41-.4-2-2-.26.26a.22.22,0,0,0,0,.3L74.88,61,71,64.88a.23.23,0,0,0,0,.31l.26.26,4-4Z"/><path class="cls-3" d="M76.51,61.83l-.4.41-4,4,.26.26a.22.22,0,0,0,.3,0l3.87-3.88,3.88,3.88a.22.22,0,0,0,.3,0l.25-.26-4-4Z"/></g><g class="cls-2"><path class="cls-3" d="M93.91,64.94,90,61.07l1.81-1.81a.22.22,0,0,0,0-.3l-.26-.26-2,2-.41.41.41.41,4,4,.26-.26A.22.22,0,0,0,93.91,64.94Z"/><path class="cls-3" d="M88.41,60.26l.4-.41,2-2-.26-.26a.22.22,0,0,0-.3,0l-1.81,1.81L86.6,57.63a.23.23,0,0,0-.31,0l-.25.26,2,2Z"/><path class="cls-3" d="M87.59,61.07l-.4-.41-2-2L85,59a.2.2,0,0,0,0,.3l1.81,1.81-3.87,3.87a.2.2,0,0,0,0,.3l.25.26,4-4Z"/><path class="cls-3" d="M88.41,61.88l-.41.41-4,4,.25.25a.21.21,0,0,0,.31,0l3.87-3.87,3.87,3.87a.2.2,0,0,0,.3,0l.26-.25-4-4Z"/></g><g class="cls-2"><path class="cls-3" d="M105.79,64.94l-3.87-3.87,1.81-1.81a.2.2,0,0,0,0-.3l-.25-.26-2,2-.4.41.4.41,4,4,.25-.26A.2.2,0,0,0,105.79,64.94Z"/><path class="cls-3" d="M100.29,60.26l.41-.41,2-2-.25-.26a.23.23,0,0,0-.31,0l-1.81,1.81-1.81-1.81a.22.22,0,0,0-.3,0l-.26.26,2,2Z"/><path class="cls-3" d="M99.48,61.07l-.41-.41-2-2-.26.26a.22.22,0,0,0,0,.3l1.81,1.81-3.87,3.87a.22.22,0,0,0,0,.3l.26.26,4-4Z"/><path class="cls-3" d="M100.29,61.88l-.4.41-4,4,.26.25a.2.2,0,0,0,.3,0l3.87-3.87,3.87,3.87a.21.21,0,0,0,.31,0l.25-.25-4-4Z"/></g><g class="cls-2"><path class="cls-3" d="M117.47,64.94l-3.87-3.87,1.81-1.81a.22.22,0,0,0,0-.3l-.26-.26-2,2-.41.41.41.41,4,4,.26-.26A.22.22,0,0,0,117.47,64.94Z"/><path class="cls-3" d="M112,60.26l.41-.41,2-2-.26-.26a.22.22,0,0,0-.3,0L112,59.44l-1.81-1.81a.23.23,0,0,0-.31,0l-.25.26,2,2Z"/><path class="cls-3" d="M111.15,61.07l-.4-.41-2-2-.25.26a.2.2,0,0,0,0,.3l1.81,1.81-3.87,3.87a.2.2,0,0,0,0,.3l.25.26,4-4Z"/><path class="cls-3" d="M112,61.88l-.41.41-4,4,.25.25a.21.21,0,0,0,.31,0L112,62.7l3.87,3.87a.2.2,0,0,0,.3,0l.26-.25-4-4Z"/></g><g class="cls-2"><path class="cls-3" d="M70.13,74l-3.87-3.87,1.81-1.81a.22.22,0,0,0,0-.3l-.26-.26-2,2-.41.41.41.41,4,4,.26-.26A.22.22,0,0,0,70.13,74Z"/><path class="cls-3" d="M64.63,69.32l.41-.4,2-2-.26-.25a.22.22,0,0,0-.3,0l-1.81,1.81L62.82,66.7a.22.22,0,0,0-.3,0l-.26.25,2,2Z"/><path class="cls-3" d="M63.81,70.14l-.4-.41-2-2-.25.26a.2.2,0,0,0,0,.3L63,70.14,59.13,74a.22.22,0,0,0,0,.3l.25.26,4-4Z"/><path class="cls-3" d="M64.63,71l-.41.41-4,4,.25.26a.23.23,0,0,0,.31,0l3.87-3.87,3.87,3.87a.22.22,0,0,0,.3,0l.26-.26-4-4Z"/></g><g class="cls-2"><path class="cls-3" d="M82,74l-3.86-3.87L80,68.33a.2.2,0,0,0,0-.3l-.25-.26-2,2-.41.41.41.41,4,4,.25-.26A.2.2,0,0,0,82,74Z"/><path class="cls-3" d="M76.51,69.32l.41-.4,2-2-.25-.25a.23.23,0,0,0-.31,0l-1.81,1.81L74.7,66.7a.22.22,0,0,0-.3,0l-.26.25,2,2Z"/><path class="cls-3" d="M75.7,70.14l-.41-.41-2-2-.26.26a.22.22,0,0,0,0,.3l1.81,1.81L71,74a.22.22,0,0,0,0,.3l.26.26,4-4Z"/><path class="cls-3" d="M76.51,71l-.4.41-4,4,.26.26a.22.22,0,0,0,.3,0l3.87-3.87,3.88,3.87a.22.22,0,0,0,.3,0l.25-.26-4-4Z"/></g><g class="cls-2"><path class="cls-3" d="M93.91,74.07,90,70.2l1.81-1.81a.23.23,0,0,0,0-.31l-.26-.25-2,2-.41.41.41.41,4,4,.26-.26A.22.22,0,0,0,93.91,74.07Z"/><path class="cls-3" d="M88.41,69.38l.4-.41,2-2-.26-.25a.2.2,0,0,0-.3,0l-1.81,1.81L86.6,66.76a.21.21,0,0,0-.31,0L86,67l2,2Z"/><path class="cls-3" d="M87.59,70.2l-.4-.41-2-2-.25.25a.21.21,0,0,0,0,.31l1.81,1.81-3.87,3.87a.2.2,0,0,0,0,.3l.25.26,4-4Z"/><path class="cls-3" d="M88.41,71l-.41.41-4,4,.25.26a.23.23,0,0,0,.31,0l3.87-3.87,3.87,3.87a.22.22,0,0,0,.3,0l.26-.26-4-4Z"/></g><g class="cls-2"><path class="cls-3" d="M105.79,74.07l-3.87-3.87,1.81-1.81a.21.21,0,0,0,0-.31l-.25-.25-2,2-.4.41.4.41,4,4,.25-.26A.2.2,0,0,0,105.79,74.07Z"/><path class="cls-3" d="M100.29,69.38l.41-.41,2-2-.25-.25a.21.21,0,0,0-.31,0l-1.81,1.81-1.81-1.81a.2.2,0,0,0-.3,0l-.26.25,2,2Z"/><path class="cls-3" d="M99.48,70.2l-.41-.41-2-2-.26.25a.23.23,0,0,0,0,.31l1.81,1.81-3.87,3.87a.22.22,0,0,0,0,.3l.26.26,4-4Z"/><path class="cls-3" d="M100.29,71l-.4.41-4,4,.26.26a.22.22,0,0,0,.3,0l3.87-3.87,3.87,3.87a.23.23,0,0,0,.31,0l.25-.26-4-4Z"/></g><g class="cls-2"><path class="cls-3" d="M117.47,74.07,113.6,70.2l1.81-1.81a.23.23,0,0,0,0-.31l-.26-.25-2,2-.41.41.41.41,4,4,.26-.26A.22.22,0,0,0,117.47,74.07Z"/><path class="cls-3" d="M112,69.38l.41-.41,2-2-.26-.25a.2.2,0,0,0-.3,0L112,68.57l-1.81-1.81a.21.21,0,0,0-.31,0l-.25.25,2,2Z"/><path class="cls-3" d="M111.15,70.2l-.4-.41-2-2-.25.25a.21.21,0,0,0,0,.31l1.81,1.81-3.87,3.87a.2.2,0,0,0,0,.3l.25.26,4-4Z"/><path class="cls-3" d="M112,71l-.41.41-4,4,.25.26a.23.23,0,0,0,.31,0L112,71.83l3.87,3.87a.22.22,0,0,0,.3,0l.26-.26-4-4Z"/></g><g class="cls-2"><path class="cls-3" d="M70.13,84l-3.87-3.87,1.81-1.81a.23.23,0,0,0,0-.31l-.26-.26-2,2-.41.4.41.41,4,4,.26-.26A.22.22,0,0,0,70.13,84Z"/><path class="cls-3" d="M64.63,79.27l.41-.41,2-2-.26-.26a.22.22,0,0,0-.3,0l-1.81,1.81-1.81-1.81a.22.22,0,0,0-.3,0l-.26.26,2,2Z"/><path class="cls-3" d="M63.81,80.08l-.4-.4-2-2-.25.26a.21.21,0,0,0,0,.31L63,80.09,59.13,84a.22.22,0,0,0,0,.3l.25.26,4-4Z"/><path class="cls-3" d="M64.63,80.9l-.41.41-4,4,.25.26a.23.23,0,0,0,.31,0l3.87-3.87,3.87,3.87a.22.22,0,0,0,.3,0l.26-.26-4-4Z"/></g><g class="cls-2"><path class="cls-3" d="M82,84l-3.86-3.87L80,78.28A.21.21,0,0,0,80,78l-.25-.26-2,2-.41.4.41.41,4,4,.25-.26A.2.2,0,0,0,82,84Z"/><path class="cls-3" d="M76.51,79.27l.41-.41,2-2-.25-.26a.23.23,0,0,0-.31,0l-1.81,1.81L74.7,76.64a.22.22,0,0,0-.3,0l-.26.26,2,2Z"/><path class="cls-3" d="M75.7,80.08l-.41-.4-2-2-.26.26a.23.23,0,0,0,0,.31l1.81,1.81L71,84a.22.22,0,0,0,0,.3l.26.26,4-4Z"/><path class="cls-3" d="M76.51,80.9l-.4.41-4,4,.26.26a.22.22,0,0,0,.3,0l3.87-3.87,3.88,3.87a.22.22,0,0,0,.3,0l.25-.26-4-4Z"/></g><g class="cls-2"><path class="cls-3" d="M93.91,84,90,80.14l1.81-1.81a.22.22,0,0,0,0-.3l-.26-.26-2,2-.41.41.41.41,4,4,.26-.25A.23.23,0,0,0,93.91,84Z"/><path class="cls-3" d="M88.41,79.33l.4-.41,2-2-.26-.26a.22.22,0,0,0-.3,0l-1.81,1.81L86.6,76.7a.23.23,0,0,0-.31,0L86,77l2,2Z"/><path class="cls-3" d="M87.59,80.14l-.4-.41-2-2L85,78a.2.2,0,0,0,0,.3l1.81,1.81L82.91,84a.21.21,0,0,0,0,.31l.25.25,4-4Z"/><path class="cls-3" d="M88.41,81l-.41.41-4,4,.25.25a.21.21,0,0,0,.31,0l3.87-3.87,3.87,3.87a.2.2,0,0,0,.3,0l.26-.25-4-4Z"/></g><g class="cls-2"><path class="cls-3" d="M105.79,84l-3.87-3.87,1.81-1.81a.2.2,0,0,0,0-.3l-.25-.26-2,2-.4.41.4.41,4,4,.25-.25A.21.21,0,0,0,105.79,84Z"/><path class="cls-3" d="M100.29,79.33l.41-.41,2-2-.25-.26a.23.23,0,0,0-.31,0l-1.81,1.81L98.48,76.7a.22.22,0,0,0-.3,0l-.26.26,2,2Z"/><path class="cls-3" d="M99.48,80.14l-.41-.41-2-2-.26.26a.22.22,0,0,0,0,.3l1.81,1.81L94.79,84a.23.23,0,0,0,0,.31l.26.25,4-4Z"/><path class="cls-3" d="M100.29,81l-.4.41-4,4,.26.25a.2.2,0,0,0,.3,0l3.87-3.87,3.87,3.87a.21.21,0,0,0,.31,0l.25-.25-4-4Z"/></g><g class="cls-2"><path class="cls-3" d="M117.47,84l-3.87-3.87,1.81-1.81a.22.22,0,0,0,0-.3l-.26-.26-2,2-.41.41.41.41,4,4,.26-.25A.23.23,0,0,0,117.47,84Z"/><path class="cls-3" d="M112,79.33l.41-.41,2-2-.26-.26a.22.22,0,0,0-.3,0L112,78.51l-1.81-1.81a.23.23,0,0,0-.31,0l-.25.26,2,2Z"/><path class="cls-3" d="M111.15,80.14l-.4-.41-2-2-.25.26a.2.2,0,0,0,0,.3l1.81,1.81L106.47,84a.21.21,0,0,0,0,.31l.25.25,4-4Z"/><path class="cls-3" d="M112,81l-.41.41-4,4,.25.25a.21.21,0,0,0,.31,0L112,81.77l3.87,3.87a.2.2,0,0,0,.3,0l.26-.25-4-4Z"/></g><g class="cls-2"><path class="cls-3" d="M70.13,94l-3.87-3.87,1.81-1.81a.22.22,0,0,0,0-.3l-.26-.26-2,2-.41.41.41.41,4,4,.26-.26A.22.22,0,0,0,70.13,94Z"/><path class="cls-3" d="M64.63,89.27l.41-.4,2-2-.26-.25a.22.22,0,0,0-.3,0l-1.81,1.81-1.81-1.81a.22.22,0,0,0-.3,0l-.26.25,2,2Z"/><path class="cls-3" d="M63.81,90.09l-.4-.41-2-2-.25.26a.2.2,0,0,0,0,.3L63,90.09,59.13,94a.22.22,0,0,0,0,.3l.25.26,4-4Z"/><path class="cls-3" d="M64.63,90.9l-.41.41-4,4,.25.26a.23.23,0,0,0,.31,0l3.87-3.87,3.87,3.87a.22.22,0,0,0,.3,0l.26-.26-4-4Z"/></g><g class="cls-2"><path class="cls-3" d="M82,94l-3.86-3.87L80,88.28a.2.2,0,0,0,0-.3l-.25-.26-2,2-.41.41.41.41,4,4,.25-.26A.2.2,0,0,0,82,94Z"/><path class="cls-3" d="M76.51,89.27l.41-.4,2-2-.25-.25a.23.23,0,0,0-.31,0l-1.81,1.81L74.7,86.65a.22.22,0,0,0-.3,0l-.26.25,2,2Z"/><path class="cls-3" d="M75.7,90.09l-.41-.41-2-2-.26.26a.22.22,0,0,0,0,.3l1.81,1.81L71,94a.22.22,0,0,0,0,.3l.26.26,4-4Z"/><path class="cls-3" d="M76.51,90.9l-.4.41-4,4,.26.26a.22.22,0,0,0,.3,0l3.87-3.87,3.88,3.87a.22.22,0,0,0,.3,0l.25-.26-4-4Z"/></g><g class="cls-2"><path class="cls-3" d="M93.91,94,90,90.15l1.81-1.81a.23.23,0,0,0,0-.31l-.26-.25-2,2-.41.41.41.41,4,4,.26-.26A.22.22,0,0,0,93.91,94Z"/><path class="cls-3" d="M88.41,89.33l.4-.41,2-2-.26-.25a.2.2,0,0,0-.3,0l-1.81,1.81L86.6,86.71a.21.21,0,0,0-.31,0L86,87l2,2Z"/><path class="cls-3" d="M87.59,90.15l-.4-.41-2-2L85,88a.21.21,0,0,0,0,.31l1.81,1.81L82.91,94a.2.2,0,0,0,0,.3l.25.26,4-4Z"/><path class="cls-3" d="M88.41,91l-.41.41-4,4,.25.26a.23.23,0,0,0,.31,0l3.87-3.87,3.87,3.87a.22.22,0,0,0,.3,0l.26-.26-4-4Z"/></g><g class="cls-2"><path class="cls-3" d="M105.79,94l-3.87-3.87,1.81-1.81a.21.21,0,0,0,0-.31l-.25-.25-2,2-.4.41.4.41,4,4,.25-.26A.2.2,0,0,0,105.79,94Z"/><path class="cls-3" d="M100.29,89.33l.41-.41,2-2-.25-.25a.21.21,0,0,0-.31,0l-1.81,1.81-1.81-1.81a.2.2,0,0,0-.3,0l-.26.25,2,2Z"/><path class="cls-3" d="M99.48,90.15l-.41-.41-2-2-.26.25a.23.23,0,0,0,0,.31l1.81,1.81L94.79,94a.22.22,0,0,0,0,.3l.26.26,4-4Z"/><path class="cls-3" d="M100.29,91l-.4.41-4,4,.26.26a.22.22,0,0,0,.3,0l3.87-3.87,3.87,3.87a.23.23,0,0,0,.31,0l.25-.26-4-4Z"/></g><g class="cls-2"><path class="cls-3" d="M117.47,94l-3.87-3.87,1.81-1.81a.23.23,0,0,0,0-.31l-.26-.25-2,2-.41.41.41.41,4,4,.26-.26A.22.22,0,0,0,117.47,94Z"/><path class="cls-3" d="M112,89.33l.41-.41,2-2-.26-.25a.2.2,0,0,0-.3,0L112,88.52l-1.81-1.81a.21.21,0,0,0-.31,0l-.25.25,2,2Z"/><path class="cls-3" d="M111.15,90.15l-.4-.41-2-2-.25.25a.21.21,0,0,0,0,.31l1.81,1.81L106.47,94a.2.2,0,0,0,0,.3l.25.26,4-4Z"/><path class="cls-3" d="M112,91l-.41.41-4,4,.25.26a.23.23,0,0,0,.31,0L112,91.78l3.87,3.87a.22.22,0,0,0,.3,0l.26-.26-4-4Z"/></g></g></g></svg>