<svg width="110" height="50" viewBox="0 0 110 50" fill="none" xmlns="http://www.w3.org/2000/svg">
<path d="M11.2049 8.5C11.1116 8.5 11.0184 8.5 11.0184 8.59428L9.03382 10.601C8.94059 10.6953 8.94059 10.8906 9.03382 10.9848L19.0366 21.0993L29.0394 10.9848C29.1327 10.8906 29.1327 10.6953 29.0394 10.601L27.0549 8.59428C26.9616 8.5 26.7685 8.5 26.582 8.59428L19.03 16.2306L11.4779 8.59428C11.3847 8.5 11.2914 8.5 11.1916 8.5H11.2049ZM7.71521 11.9343C7.62198 11.9343 7.52874 11.9343 7.52874 12.0286L5.54416 14.0354C5.45093 14.1296 5.45093 14.3249 5.54416 14.5135L13.0962 22.1498L0.0699264 35.3215C-0.0233088 35.4158 -0.0233088 35.6111 0.0699264 35.7997L2.0545 37.8064C2.14774 37.9007 2.34087 37.9007 2.4341 37.8064L17.9178 22.1498L15.4604 19.665L7.90834 12.0286C7.90834 12.0286 7.81511 12.0286 7.72187 11.9343H7.71521ZM30.2781 11.9343C30.1849 11.9343 30.0917 11.9343 30.0917 12.0286L22.5396 19.665L20.0822 22.1498L35.5659 37.8064C35.6591 37.9007 35.8523 37.9007 35.9455 37.8064L37.9301 35.7997C38.0233 35.7054 38.0233 35.5101 37.9301 35.3215L24.9038 22.1498L32.4558 14.5135C32.5491 14.4192 32.5491 14.2239 32.4558 14.0354L30.4713 12.0286C30.4713 12.0286 30.378 11.9343 30.2848 11.9343H30.2781ZM19.0433 23.2946L16.5859 25.7795L3.55959 38.9444C3.46635 39.0387 3.46635 39.234 3.55959 39.4226L5.54416 41.4293C5.6374 41.5236 5.83053 41.5236 6.017 41.4293L19.0433 28.2576L32.0696 41.4293C32.1628 41.5236 32.3559 41.5236 32.5424 41.4293L34.527 39.4226C34.6202 39.3283 34.6202 39.133 34.527 38.9444L21.5007 25.7727L19.0433 23.2879V23.2946Z" fill="#E9190F"/>
</svg>